<?xml version="1.0" standalone="no"?><!DOCTYPE svg PUBLIC "-//W3C//DTD SVG 1.1//EN" "http://www.w3.org/Graphics/SVG/1.1/DTD/svg11.dtd"><svg class="icon" height="512" viewBox="0 0 1024 1024" version="1.1" xmlns="http://www.w3.org/2000/svg"><path d="M512 32C249.6 32 32 249.6 32 512s217.6 480 480 480c262.4 0 480-217.6 480-480S774.4 32 512 32zM512 896c-211.2 0-384-172.8-384-384 0-211.2 172.8-384 384-384 211.2 0 384 172.8 384 384C896 723.2 723.2 896 512 896z"  /><path d="M512 256c140.8 0 256 115.2 256 256 0 140.8-115.2 256-256 256-140.8 0-256-115.2-256-256C256 371.2 371.2 256 512 256z"  /></svg>